<?xml version="1.0" encoding="utf-8"?>
<!-- Generator: Adobe Illustrator 26.0.1, SVG Export Plug-In . SVG Version: 6.00 Build 0)  -->
<svg version="1.1" id="Слой_1" xmlns="http://www.w3.org/2000/svg" xmlns:xlink="http://www.w3.org/1999/xlink" x="0px" y="0px"
	 viewBox="0 0 24 24" style="enable-background:new 0 0 24 24;" xml:space="preserve">
<style type="text/css">
	.st0{fill:#FFFFFF;}
</style>
<path class="st0" d="M23.9,2c-0.4,0-0.7,0-1.1,0c-7.7,0-12,5.8-13.6,10.6l4.2,4.2C18.3,15,24,10.8,24,3.2C24,2.8,24,2.4,23.9,2z
	 M13.9,14.7l-2.6-2.6c1.1-2.6,4.2-8,10.9-8.3C22,8.9,18.6,12.7,13.9,14.7z M18.8,16.1c-0.5,0.3-1,0.6-1.5,0.9
	c-0.2,0.8-0.6,1.6-1.2,2.4c0-0.5-0.1-1-0.4-1.5c-0.4,0.2-0.9,0.4-1.3,0.5c0.6,1.5,0,2.6-0.8,3.7c1.2-0.1,2.4-0.7,3.3-1.6
	C18,19.4,18.7,17.9,18.8,16.1z M8.2,10.3c-0.5-0.2-1-0.4-1.5-0.4c0.7-0.6,1.6-1,2.3-1.2c0.3-0.5,0.6-1,0.9-1.5C8.1,7.3,6.6,8,5.6,9
	c-1,1-1.5,2.2-1.6,3.3c1.1-0.8,2.2-1.4,3.7-0.8C7.9,11.1,8,10.7,8.2,10.3z M15.1,10.9c-0.4-0.3-0.4-0.9,0-1.3c0.3-0.3,0.9-0.3,1.3,0
	c0.3,0.3,0.3,0.9,0,1.3C16,11.2,15.5,11.2,15.1,10.9z M19.5,6.5c-0.7-0.7-1.8-0.7-2.5,0c-0.7,0.7-0.7,1.8,0,2.5
	c0.7,0.7,1.8,0.7,2.5,0C20.2,8.3,20.2,7.2,19.5,6.5z M17.8,8.2c-0.2-0.2-0.2-0.6,0-0.9c0.2-0.2,0.6-0.2,0.9,0c0.2,0.2,0.2,0.6,0,0.9
	C18.5,8.4,18.1,8.4,17.8,8.2z M11.3,17.2C9.6,19,7.7,20,5.6,20C2.4,20,0,17.6,0,14.7c0-1.5,0.6-3.1,2-4.7c-3.2,5.1,1.1,10.1,6.7,4.6
	l0.8,0.8c-0.9,1.1-1.7,2-3,2.6c1.3,0.1,2.9-0.7,4-1.6L11.3,17.2z"/>
</svg>
